name rise43.5482peak65.4966fall89.1036.mot
datacolumns 19
datarows 12
range 14.66493500000000 14.68327600000000
endheader
time	ground_force1_vx	ground_force1_vy	ground_force1_vz	ground_force1_px	ground_force1_py	ground_force1_pz	ground_force2_vx	ground_force2_vy	ground_force2_vz	ground_force2_px	ground_force2_py	ground_force2_pz	ground_torque1_x	ground_torque1_y	ground_torque1_z	ground_torque2_x	ground_torque2_y	ground_torque2_z	
14.66493500000000	69.16355400000000	822.56013700000005	54.85801000000000	0.30384600000000	0.00000000000000	0.08450700000000	0.00000000000000	0.00000000000000	0.00000000000000	0.00000000000000	0.00000000000000	0.00000000000000	0.00000000000000	20.99026000000000	0.00000000000000	0.00000000000000	0.00000000000000	0.00000000000000	
14.66661800000000	68.34208800000000	823.43834500000003	54.84341400000000	0.30282500000000	0.00000000000000	0.08449300000000	0.00000000000000	0.00000000000000	0.00000000000000	0.00000000000000	0.00000000000000	0.00000000000000	0.00000000000000	20.97978900000000	0.00000000000000	0.00000000000000	0.00000000000000	0.00000000000000	
14.66827600000000	67.51485300000000	824.12552900000003	54.82069600000000	0.30180800000000	0.00000000000000	0.08447900000000	0.00000000000000	0.00000000000000	0.00000000000000	0.00000000000000	0.00000000000000	0.00000000000000	0.00000000000000	20.96689100000000	0.00000000000000	0.00000000000000	0.00000000000000	0.00000000000000	
14.66994000000000	66.68265900000000	824.62458700000002	54.78972600000000	0.30079300000000	0.00000000000000	0.08446400000000	0.00000000000000	0.00000000000000	0.00000000000000	0.00000000000000	0.00000000000000	0.00000000000000	0.00000000000000	20.95139900000000	0.00000000000000	0.00000000000000	0.00000000000000	0.00000000000000	
14.67161900000000	65.84627500000001	824.93866300000002	54.75035400000000	0.29977900000000	0.00000000000000	0.08444900000000	0.00000000000000	0.00000000000000	0.00000000000000	0.00000000000000	0.00000000000000	0.00000000000000	0.00000000000000	20.93313000000000	0.00000000000000	0.00000000000000	0.00000000000000	0.00000000000000	
14.67327100000000	65.00642499999999	825.07114300000001	54.70241400000000	0.29876600000000	0.00000000000000	0.08443300000000	0.00000000000000	0.00000000000000	0.00000000000000	0.00000000000000	0.00000000000000	0.00000000000000	0.00000000000000	20.91189300000000	0.00000000000000	0.00000000000000	0.00000000000000	0.00000000000000	
14.67493900000000	64.16379100000000	825.02564900000004	54.64572900000000	0.29775200000000	0.00000000000000	0.08441700000000	0.00000000000000	0.00000000000000	0.00000000000000	0.00000000000000	0.00000000000000	0.00000000000000	0.00000000000000	20.88748900000000	0.00000000000000	0.00000000000000	0.00000000000000	0.00000000000000	
14.67661100000000	63.31901900000000	824.80603799999994	54.58011600000000	0.29673600000000	0.00000000000000	0.08440000000000	0.00000000000000	0.00000000000000	0.00000000000000	0.00000000000000	0.00000000000000	0.00000000000000	0.00000000000000	20.85971300000000	0.00000000000000	0.00000000000000	0.00000000000000	0.00000000000000	
14.67827400000000	62.47271400000000	824.41639299999997	54.50539000000000	0.29571800000000	0.00000000000000	0.08438200000000	0.00000000000000	0.00000000000000	0.00000000000000	0.00000000000000	0.00000000000000	0.00000000000000	0.00000000000000	20.82836100000000	0.00000000000000	0.00000000000000	0.00000000000000	0.00000000000000	
14.67993800000000	61.62545200000000	823.86102100000005	54.42136500000000	0.29469700000000	0.00000000000000	0.08436400000000	0.00000000000000	0.00000000000000	0.00000000000000	0.00000000000000	0.00000000000000	0.00000000000000	0.00000000000000	20.79323000000000	0.00000000000000	0.00000000000000	0.00000000000000	0.00000000000000	
14.68161700000000	60.77777400000000	823.14444200000003	54.32786400000000	0.29367100000000	0.00000000000000	0.08434500000000	0.00000000000000	0.00000000000000	0.00000000000000	0.00000000000000	0.00000000000000	0.00000000000000	0.00000000000000	20.75411800000000	0.00000000000000	0.00000000000000	0.00000000000000	0.00000000000000	
14.68327600000000	59.93019200000000	822.27138400000001	54.22471700000000	0.29263900000000	0.00000000000000	0.08432500000000	0.00000000000000	0.00000000000000	0.00000000000000	0.00000000000000	0.00000000000000	0.00000000000000	0.00000000000000	20.71083400000000	0.00000000000000	0.00000000000000	0.00000000000000	0.00000000000000	
